<?xml version="1.0" standalone="no"?>
<!DOCTYPE svg PUBLIC "-//W3C//DTD SVG 20010904//EN"
 "http://www.w3.org/TR/2001/REC-SVG-20010904/DTD/svg10.dtd">
<svg version="1.0" xmlns="http://www.w3.org/2000/svg"
 width="984.000000pt" height="984.000000pt" viewBox="0 0 984.000000 984.000000"
 preserveAspectRatio="xMidYMid meet">
<metadata>
Created by potrace 1.14, written by Peter Selinger 2001-2017
</metadata>
<g transform="translate(0.000000,984.000000) scale(0.100000,-0.100000)"
fill="#000000" stroke="none">
<path d="M4698 9245 c-2 -3 -26 -7 -54 -10 -122 -14 -196 -33 -311 -77 -29
-11 -54 -18 -57 -16 -2 1 -13 -6 -25 -16 -12 -11 -21 -16 -21 -13 0 10 -195
-105 -210 -123 -3 -3 -23 -19 -45 -36 -48 -35 -46 -33 -132 -115 -38 -37 -98
-100 -134 -140 -35 -41 -66 -76 -69 -79 -3 -3 -17 -21 -31 -40 -15 -19 -35
-45 -45 -57 -11 -12 -28 -34 -39 -49 -11 -15 -29 -39 -41 -53 -11 -14 -29 -41
-39 -58 -11 -18 -23 -33 -27 -33 -4 0 -15 -15 -24 -32 -9 -18 -20 -35 -24 -38
-6 -5 -76 -100 -110 -150 -8 -13 -25 -35 -37 -50 -13 -15 -23 -31 -23 -34 0
-3 -7 -14 -16 -23 -9 -10 -64 -85 -122 -168 -58 -82 -110 -151 -114 -153 -4
-2 -8 -9 -8 -15 0 -7 -11 -24 -24 -38 -20 -22 -50 -63 -91 -128 -5 -8 -16 -22
-23 -29 -7 -8 -21 -27 -30 -41 -9 -14 -21 -30 -25 -36 -5 -5 -66 -91 -137
-190 -71 -99 -132 -184 -137 -190 -4 -5 -19 -27 -33 -47 -14 -21 -28 -38 -32
-38 -5 0 -8 -4 -8 -10 0 -7 -50 -80 -158 -229 -9 -13 -50 -69 -89 -125 -40
-55 -80 -110 -89 -121 -14 -18 -164 -226 -217 -302 -36 -51 -187 -257 -201
-273 -7 -9 -15 -24 -19 -33 -3 -9 -11 -17 -17 -17 -5 0 -10 -7 -10 -15 0 -8
-4 -15 -10 -15 -5 0 -10 -6 -10 -13 0 -7 -8 -22 -18 -33 -30 -32 -192 -307
-197 -334 0 -3 -10 -23 -22 -45 -12 -22 -23 -49 -25 -60 -1 -11 -5 -22 -8 -25
-6 -6 -42 -117 -45 -140 -1 -8 -5 -22 -8 -30 -22 -55 -30 -301 -13 -370 3 -14
9 -41 12 -60 16 -88 94 -248 168 -345 45 -58 171 -182 244 -240 59 -45 62 -50
43 -59 -12 -5 -21 -13 -21 -18 0 -4 -6 -8 -13 -8 -7 0 -22 -7 -32 -15 -11 -9
-49 -37 -85 -63 -76 -55 -139 -112 -224 -201 -33 -36 -71 -75 -83 -87 -35 -38
-193 -251 -193 -262 0 -6 -4 -12 -8 -14 -7 -2 -128 -200 -174 -283 -35 -62
-148 -295 -148 -304 0 -6 -5 -11 -12 -11 -6 0 -9 -3 -6 -6 5 -4 -15 -53 -72
-179 -25 -54 -82 -201 -83 -212 0 -7 -4 -13 -7 -13 -4 0 -10 -13 -13 -30 -4
-16 -15 -49 -26 -72 -10 -24 -47 -126 -81 -228 -34 -102 -66 -194 -70 -205 -5
-11 -23 -67 -40 -125 -17 -58 -40 -131 -51 -163 -10 -32 -21 -65 -23 -75 -1
-9 -6 -24 -9 -32 -3 -8 -18 -55 -32 -105 -14 -49 -27 -94 -29 -100 -15 -51
-29 -103 -32 -118 -1 -10 -8 -32 -14 -50 -9 -28 -88 -315 -93 -342 -2 -5 -6
-16 -10 -22 -5 -7 -6 -13 -3 -13 3 0 2 -10 -3 -22 -4 -13 -11 -35 -15 -51 l-6
-27 897 2 898 3 0 980 c1 786 4 988 14 1020 37 110 118 193 225 228 45 16 279
17 2886 17 1998 0 2847 -3 2871 -11 88 -28 163 -84 203 -153 52 -90 50 -52 51
-1101 l0 -980 899 -3 c806 -2 898 -1 892 13 -9 25 -39 130 -37 130 2 0 -7 24
-18 53 -11 28 -18 52 -15 52 4 0 2 6 -3 13 -6 6 -16 35 -23 62 -7 28 -23 82
-35 120 -20 59 -41 132 -51 170 -1 6 -15 48 -29 95 -15 47 -30 99 -35 115 -4
17 -25 84 -45 150 -21 66 -38 125 -40 130 -2 9 -5 18 -23 65 -3 8 -5 18 -4 21
1 3 -13 48 -29 100 -17 52 -32 101 -34 109 -1 8 -10 38 -19 65 -13 43 -67 221
-71 235 -1 3 -4 12 -8 20 -3 8 -13 38 -21 65 -20 69 -64 194 -82 232 -7 17
-14 34 -14 38 0 43 -274 572 -302 583 -4 2 -8 8 -8 14 0 10 -144 216 -164 233
-6 6 -23 26 -38 45 -59 78 -203 227 -287 299 -30 25 -73 63 -95 83 -23 21 -44
38 -47 38 -3 0 -16 8 -27 18 -12 9 -37 28 -56 42 -20 14 -35 30 -35 35 0 6 13
23 29 39 17 16 30 33 30 38 0 5 5 6 10 3 6 -3 10 -2 10 3 0 4 25 40 55 78 91
113 226 324 208 324 -4 0 -3 4 3 8 6 4 16 21 22 37 6 17 19 54 30 83 11 28 19
52 16 52 -2 0 0 10 5 23 36 94 34 291 -5 450 -2 9 -6 26 -8 37 -19 83 -150
330 -252 475 -54 76 -107 149 -114 155 -3 3 -25 32 -50 65 -25 33 -49 65 -55
71 -5 6 -21 26 -35 44 -26 34 -111 143 -134 170 -19 24 -157 207 -205 272 -23
32 -41 61 -40 64 0 4 -3 10 -8 13 -14 10 -143 191 -143 200 0 5 -4 11 -8 13
-5 2 -23 26 -42 53 -18 28 -36 52 -39 55 -3 3 -26 34 -51 70 -24 36 -48 67
-52 68 -4 2 -8 10 -8 17 0 7 -3 15 -7 17 -5 2 -17 17 -29 33 -41 60 -93 133
-200 283 -60 85 -113 161 -119 170 -5 9 -13 19 -16 22 -3 3 -30 41 -60 85 -30
44 -56 82 -60 85 -3 3 -25 34 -50 70 -24 36 -46 67 -49 70 -3 3 -28 37 -55 75
-26 39 -62 90 -79 114 -17 23 -35 50 -41 60 -5 9 -13 18 -16 21 -3 3 -39 52
-79 110 -41 58 -78 110 -82 115 -4 6 -26 35 -48 65 -134 185 -345 430 -372
430 -5 0 -6 5 -3 10 3 6 3 10 -2 10 -8 0 -31 19 -95 75 -50 45 -189 133 -271
174 -72 34 -206 85 -259 97 -10 2 -28 6 -40 9 -56 13 -120 25 -153 27 -19 1
-35 5 -35 8 0 6 -386 11 -392 5z m-683 -2383 c129 -55 172 -73 185 -77 3 -1
39 -12 80 -25 41 -13 78 -25 83 -26 4 -1 8 -2 10 -4 1 -1 9 -3 17 -5 117 -30
148 -37 165 -39 11 -2 36 -6 55 -10 19 -3 49 -8 65 -11 67 -13 157 -18 290
-19 125 0 280 10 296 20 3 1 28 6 55 10 27 3 58 10 69 14 11 4 23 8 28 9 34 4
163 44 241 75 17 6 75 33 130 60 56 27 104 49 109 48 4 -1 7 2 7 7 0 5 10 12
23 16 66 22 221 1 307 -42 57 -29 140 -99 140 -120 0 -6 3 -13 8 -15 8 -4 52
-88 56 -109 2 -8 6 -25 10 -39 17 -61 26 -288 29 -727 1 -117 5 -213 8 -213 4
0 3 -18 -1 -39 -4 -22 -4 -44 -1 -50 4 -6 6 -41 4 -78 -8 -248 -12 -306 -22
-368 -31 -184 -79 -282 -207 -420 -44 -48 -134 -178 -134 -194 0 -6 -4 -11
-10 -11 -5 0 -10 -7 -10 -15 0 -8 -8 -29 -18 -47 -10 -18 -31 -64 -47 -103
-46 -114 -139 -289 -175 -332 -8 -10 -34 -44 -57 -75 -35 -47 -92 -106 -177
-183 -28 -26 -147 -104 -201 -132 -107 -56 -239 -97 -344 -108 -60 -6 -59 -19
-10 120 15 44 26 81 24 83 -3 4 -269 6 -327 3 -14 -1 -13 -9 9 -68 44 -119 51
-149 32 -138 -5 4 -25 9 -42 12 -76 12 -305 98 -327 123 -3 3 -16 11 -30 18
-38 18 -63 35 -81 55 -9 9 -21 17 -27 17 -12 0 -208 191 -250 243 -46 57 -122
176 -168 263 -92 177 -114 211 -227 362 -63 84 -133 190 -155 235 -39 77 -87
228 -98 306 -2 19 -7 48 -10 65 -13 74 -23 178 -29 320 -3 66 -9 124 -12 129
-3 6 -1 7 5 3 9 -5 10 0 4 16 -10 28 -9 79 2 96 4 7 3 12 -1 12 -5 0 -8 15 -6
33 1 17 5 160 8 317 4 255 8 317 22 370 2 8 5 21 5 28 1 6 5 12 10 12 5 0 7 4
3 9 -9 16 77 220 98 229 4 2 7 9 7 16 0 18 88 99 131 122 52 27 88 33 164 29
59 -3 93 -13 210 -63z"/>
<path d="M4225 6355 c-65 -13 -115 -33 -115 -47 0 -4 -6 -8 -12 -9 -7 0 -23
-13 -36 -30 -26 -33 -24 -34 48 -43 61 -7 99 -15 138 -27 18 -6 39 -12 45 -13
21 -4 91 -28 132 -46 133 -59 179 -81 205 -100 17 -12 30 -18 30 -15 0 3 12
-2 28 -13 15 -10 44 -29 65 -41 l37 -23 -21 36 c-11 20 -25 36 -30 36 -5 0 -9
4 -9 10 0 16 -29 49 -121 140 -90 89 -186 153 -254 171 -22 6 -47 14 -55 18
-8 4 -42 2 -75 -4z"/>
<path d="M5460 6333 c-36 -14 -67 -29 -70 -32 -3 -3 -25 -20 -49 -36 -93 -63
-281 -269 -281 -307 0 -8 3 -9 8 -2 11 16 281 162 312 169 3 1 23 9 44 18 78
34 221 73 307 83 30 3 58 9 62 11 13 8 -42 61 -92 91 -65 38 -154 40 -241 5z"/>
<path d="M4405 5673 c-11 -2 -40 -9 -65 -16 -25 -6 -47 -12 -50 -13 -33 -7
-196 -89 -235 -118 -16 -12 -38 -25 -47 -29 -10 -3 -18 -11 -18 -17 0 -5 -6
-10 -14 -10 -8 0 -18 -4 -21 -10 -3 -6 15 -8 47 -5 203 16 538 26 538 15 0 -3
26 -5 58 -5 31 -1 90 -4 130 -8 85 -7 84 -9 31 78 -35 57 -96 107 -154 125
-39 13 -161 21 -200 13z"/>
<path d="M5238 5661 c-64 -21 -132 -76 -159 -128 -12 -24 -25 -43 -28 -43 -4
0 -7 -9 -8 -19 -1 -16 4 -19 30 -15 32 4 85 10 187 20 47 5 125 6 282 4 21 0
41 0 45 1 5 1 10 0 13 -1 3 -1 25 -3 50 -5 52 -2 162 -14 203 -21 39 -6 28 8
-42 55 -105 72 -213 123 -321 152 -69 19 -197 19 -252 0z"/>
<path d="M3944 4735 c15 -41 128 -196 181 -250 51 -52 70 -65 130 -83 100 -32
157 -40 239 -37 131 6 222 52 345 175 l69 70 43 -50 c108 -127 225 -188 367
-195 63 -2 100 2 226 30 41 9 103 49 147 95 39 40 179 238 179 253 0 15 -94
-3 -127 -25 -51 -33 -203 -107 -239 -116 -55 -13 -138 -7 -179 13 -22 10 -42
21 -45 24 -7 8 -125 66 -125 61 0 -2 -11 3 -25 10 -42 23 -146 38 -243 35
-145 -5 -176 -12 -271 -61 -39 -19 -93 -47 -121 -61 -80 -41 -146 -41 -242 -1
-15 6 -30 12 -33 13 -10 4 -76 37 -95 48 -89 53 -115 64 -149 66 -31 1 -37 -1
-32 -14z"/>
</g>
</svg>
